<?xml version="1.0" encoding="UTF-8"?>
<svg id="_レイヤー_2" data-name="レイヤー 2" xmlns="http://www.w3.org/2000/svg" viewBox="0 0 131.08 132">
  <defs>
    <style>
      .cls-1 {
        fill: #fff;
      }

      .cls-2 {
        fill: #1f2020;
      }
    </style>
  </defs>
  <g id="_レイヤー_1-2" data-name=" レイヤー 1">
    <rect class="cls-1" width="131.08" height="132"/>
    <path class="cls-2" d="M74.39,37.11h25.15v6.94h-25.15v-6.94ZM69.8,32.59l33.72-.24v-7.03h-33.72v-5.4h-7.98v5.4H28.2v7.03h33.62v4.76h-29.16v6.94h29.16v5.2c2.84.07,5.57.85,7.98,2.23v-18.88h0ZM38.97,70.38v40.89h8.08v-12.1h35.03v-6.64h-35.03v-15.2h39.62v24.31c0,1.18-.29,1.53-.41,1.63-.2.15-.75.41-2.2.41h-11.45l.37,1.28c.55,1.9.92,3.76,1.1,5.53l.09.9h10.83c3.6,0,6.07-.72,7.55-2.19,1.46-1.46,2.19-3.68,2.19-6.6v-32.19h-55.78v-.03ZM47.05,82.04h30.45v6.55h-30.45v-6.55ZM111.08,64.31c0-5.45-4.42-9.86-9.86-9.86-2.19,0-4.21.73-5.85,1.94-1.97-4.33-6.33-7.35-11.4-7.35-5.36,0-9.92,3.37-11.71,8.1-2.61-3.1-6.52-5.07-10.89-5.07s-8.31,1.99-10.92,5.11c-2.46-5.39-7.89-9.15-14.2-9.15-8.62,0-15.61,6.99-15.61,15.61,0,.81.08,1.6.2,2.37h90.08c.1-.56.16-1.13.16-1.72v.02Z"/>
  </g>
</svg>